# xmcd
#
# Track frame offsets:
#	150
#	12002
#	29222
#	41256
#	62606
#	76066
#	90835
#	103543
#	117285
#	139973
#	150814
#	163167
#	183267
#	197427
#	211028
#	223742
#	257115
#	280316
#	291862
#	308032
#
# Disc length: 4222 seconds
#
# Revision: 0
# Processed by: cddbd v1.5.1PL0 Copyright (c) Steve Scherf et al.
# Submitted via: dBpowerAMP V4.0
#
DISCID=08107c14
DTITLE=Various Artist - Shaolin Soul
DYEAR=2001
DGENRE=Soul
TTITLE0=Ann Peebles - Trouble Heartaches And Sadness
TTITLE1=O.V. Wright - Lets Straighten It Out
TTITLE2=The Charmels - Ill Never Grow Old
TTITLE3=David Porter - The Masquerade Is Over
TTITLE4=Willie Mitchell - Groovin
TTITLE5=Al Green - You Ought To Be With Me
TTITLE6=Marvin Gaye and Tammi Terrell - Youre All I Need To Get By
TTITLE7=The Emotions - If You Think It (You May As Well Do It)
TTITLE8=Bob James - Nautilus
TTITLE9=Al Green - Gotta Find A New World
TTITLE10=Syl Johnson - Dont Do It
TTITLE11=Donny Hathaway - Little Ghetto Boy (Live)
TTITLE12=Syl Johnson - Could I Be Falling In Love
TTITLE13=Wendy Rene - After Laughter (Comes Tears)
TTITLE14=Lyn Collins - Aint No Sunshine
TTITLE15=Syl Johnson - Is It Because Im Black
TTITLE16=The Dramatics - In The Rain
TTITLE17=Gladys Knight and The Pips - The Way We Were
TTITLE18=O.V. Wright - Motherless Child
TTITLE19=Booker T. and The MG's - Children Dont Get Weary
EXTD=
EXTT0=
EXTT1=
EXTT2=
EXTT3=
EXTT4=
EXTT5=
EXTT6=
EXTT7=
EXTT8=
EXTT9=
EXTT10=
EXTT11=
EXTT12=
EXTT13=
EXTT14=
EXTT15=
EXTT16=
EXTT17=
EXTT18=
EXTT19=
PLAYORDER=
